<?xml version="1.0" encoding="UTF-8" standalone="no"?>
<svg
   width="24"
   height="24"
   viewBox="0 0 24 24"
   fill="none"
   stroke="currentColor"
   stroke-width="2"
   stroke-linecap="round"
   stroke-linejoin="round"
   class="lucide lucide-book-open-text-icon lucide-book-open-text"
   version="1.1"
   id="svg6"
   sodipodi:docname="appbar.navigation.svg"
   inkscape:version="1.4.3 (0d15f75, 2025-12-25)"
   xmlns:inkscape="http://www.inkscape.org/namespaces/inkscape"
   xmlns:sodipodi="http://sodipodi.sourceforge.net/DTD/sodipodi-0.dtd"
   xmlns="http://www.w3.org/2000/svg"
   xmlns:svg="http://www.w3.org/2000/svg">
  <defs
     id="defs6" />
  <sodipodi:namedview
     id="namedview6"
     pagecolor="#ffffff"
     bordercolor="#000000"
     borderopacity="0.25"
     inkscape:showpageshadow="2"
     inkscape:pageopacity="0.0"
     inkscape:pagecheckerboard="0"
     inkscape:deskcolor="#d1d1d1"
     inkscape:zoom="5.9441164"
     inkscape:cx="-20.356264"
     inkscape:cy="57.956469"
     inkscape:window-width="1920"
     inkscape:window-height="1009"
     inkscape:window-x="-8"
     inkscape:window-y="-8"
     inkscape:window-maximized="1"
     inkscape:current-layer="svg6" />
  <path
     d="M12 7v14"
     id="path1"
     style="stroke:#000000;stroke-opacity:1" />
  <path
     d="M16 12h2"
     id="path2"
     style="stroke:#000000;stroke-opacity:1" />
  <path
     d="M16 8h2"
     id="path3"
     style="stroke:#000000;stroke-opacity:1" />
  <path
     d="M3 18a1 1 0 0 1-1-1V4a1 1 0 0 1 1-1h5a4 4 0 0 1 4 4 4 4 0 0 1 4-4h5a1 1 0 0 1 1 1v13a1 1 0 0 1-1 1h-6a3 3 0 0 0-3 3 3 3 0 0 0-3-3z"
     id="path4"
     style="stroke:#000000;stroke-opacity:1" />
  <path
     d="M6 12h2"
     id="path5"
     style="stroke:#000000;stroke-opacity:1" />
  <path
     d="M6 8h2"
     id="path6"
     style="stroke:#000000;stroke-opacity:1" />
</svg>
