<?xml version="1.0" encoding="UTF-8" standalone="no"?>
<!-- Uploaded to: SVG Repo, www.svgrepo.com, Generator: SVG Repo Mixer Tools -->

<svg
   width="800px"
   height="800px"
   viewBox="0 0 64 64"
   stroke-width="3"
   stroke="#000000"
   fill="none"
   version="1.1"
   id="svg1"
   sodipodi:docname="tab_sleep.svg"
   xml:space="preserve"
   inkscape:version="1.4.3 (0d15f75, 2025-12-25)"
   xmlns:inkscape="http://www.inkscape.org/namespaces/inkscape"
   xmlns:sodipodi="http://sodipodi.sourceforge.net/DTD/sodipodi-0.dtd"
   xmlns="http://www.w3.org/2000/svg"
   xmlns:svg="http://www.w3.org/2000/svg"><defs
     id="defs1"><clipPath
       id="a"><path
         fill="#ffffff"
         d="M0 0h192v192H0z"
         id="path2" /></clipPath></defs><sodipodi:namedview
     id="namedview1"
     pagecolor="#ffffff"
     bordercolor="#000000"
     borderopacity="0.25"
     inkscape:showpageshadow="2"
     inkscape:pageopacity="0.0"
     inkscape:pagecheckerboard="0"
     inkscape:deskcolor="#d1d1d1"
     inkscape:zoom="0.35664698"
     inkscape:cx="-8.4116792"
     inkscape:cy="396.75087"
     inkscape:window-width="1920"
     inkscape:window-height="1009"
     inkscape:window-x="-8"
     inkscape:window-y="-8"
     inkscape:window-maximized="1"
     inkscape:current-layer="svg1" /><path
     d="M 41.517361,41.925048 A 20.984037,20.984037 0 0 1 23.323947,22.837669 20.706183,20.706183 0 0 1 27.032698,9.2590528 0.13288682,0.13288682 0 0 0 26.899811,9.0657628 23.315596,23.315596 0 1 0 54.624833,39.496844 0.1208062,0.1208062 0 0 0 54.455705,39.351876 20.814908,20.814908 0 0 1 41.517361,41.925048 Z"
     id="path1"
     style="stroke-width:4.4;stroke:#000000;stroke-opacity:1;stroke-dasharray:none" /><g
     style="fill:none;stroke:#000000;stroke-opacity:1;stroke-width:15.08181432;stroke-dasharray:none"
     id="g1"
     transform="matrix(0.13261004,0,0,0.13261004,30.054197,9.9102343)"><path
       d="M 30,22 H 92 L 30,96 h 62 m 25,-24 h 46 l -46,55 h 46 m -109,0 h 36 l -36,43 h 36"
       id="path1-0"
       style="stroke:#000000;stroke-width:15.08181432;stroke-linecap:round;stroke-linejoin:round;stroke-opacity:1;stroke-dasharray:none" /></g></svg>
